<svg xmlns="http://www.w3.org/2000/svg" width="249.706" height="41.458" viewBox="0 0 249.706 41.458"><defs><style>.a{fill:#1a1717;}.b{fill:#e82418;}</style></defs><g transform="translate(-3.282 -2.579)"><g transform="translate(52.668 15.553)"><path class="a" d="M241.548,89.665a23.881,23.881,0,0,1-6.824-.972,15.6,15.6,0,0,1-5.3-2.573l3.316-5.832a.673.673,0,0,1,.267.133.667.667,0,0,0,.305.133,19.6,19.6,0,0,0,4.365,2.154,13.476,13.476,0,0,0,4.4.781,5.49,5.49,0,0,0,1.6-.21,2.456,2.456,0,0,0,1.086-.629,1.343,1.343,0,0,0,.4-.953,1.447,1.447,0,0,0-.477-1.144,3.839,3.839,0,0,0-1.391-.705,26.429,26.429,0,0,0-2.707-.629,26.8,26.8,0,0,1-5.623-1.734,9.29,9.29,0,0,1-3.621-2.764,6.81,6.81,0,0,1-1.315-4.27,7.268,7.268,0,0,1,1.506-4.651,9.048,9.048,0,0,1,4.136-2.859,17.511,17.511,0,0,1,5.985-.953,22.2,22.2,0,0,1,5.928.743,15.64,15.64,0,0,1,4.9,2.306l-3.469,5.794a24.132,24.132,0,0,0-3.946-1.944,10.928,10.928,0,0,0-3.869-.724,6,6,0,0,0-1.525.171,1.9,1.9,0,0,0-.991.572,1.5,1.5,0,0,0-.343,1.01,1.326,1.326,0,0,0,.439.991,4.368,4.368,0,0,0,1.411.8,14.779,14.779,0,0,0,2.611.686,33.09,33.09,0,0,1,5.947,1.792,8.2,8.2,0,0,1,3.469,2.611,6.779,6.779,0,0,1,1.182,4.1,7.468,7.468,0,0,1-1.525,4.689,9.534,9.534,0,0,1-4.212,3.03A16.744,16.744,0,0,1,241.548,89.665Z" transform="translate(-229.426 -61.99)"/><path class="a" d="M363.324,89.665a15.874,15.874,0,0,1-7.567-1.772,13.118,13.118,0,0,1-5.222-4.937,13.575,13.575,0,0,1-1.887-7.09,13.721,13.721,0,0,1,1.887-7.167,13.093,13.093,0,0,1,5.242-4.937,17.037,17.037,0,0,1,15.134,0,13.1,13.1,0,0,1,5.242,4.937,14.346,14.346,0,0,1-.019,14.257,13.259,13.259,0,0,1-5.242,4.937A15.875,15.875,0,0,1,363.324,89.665Zm.038-7.014a5.967,5.967,0,0,0,3.183-.877,6.064,6.064,0,0,0,2.23-2.4,7.433,7.433,0,0,0,.8-3.507,7.635,7.635,0,0,0-.8-3.564,6.176,6.176,0,0,0-2.23-2.44,5.877,5.877,0,0,0-3.183-.9,5.964,5.964,0,0,0-5.451,3.316,7.666,7.666,0,0,0-.8,3.545,7.546,7.546,0,0,0,.8,3.526,5.991,5.991,0,0,0,5.451,3.3Z" transform="translate(-322.612 -61.99)"/><path class="a" d="M498.767,90.944V64.26H507V84.083h12.771v6.862Z" transform="translate(-439.948 -63.764)"/><path class="a" d="M607.69,90.944V64.26h12.5a18.344,18.344,0,0,1,7.948,1.62,12.091,12.091,0,0,1,5.261,4.632,14.411,14.411,0,0,1,0,14.124,12.161,12.161,0,0,1-5.261,4.67,18.156,18.156,0,0,1-7.948,1.639Zm12.122-6.785a8.014,8.014,0,0,0,3.7-.8,5.763,5.763,0,0,0,2.421-2.287,6.9,6.9,0,0,0,.858-3.507,6.718,6.718,0,0,0-.858-3.45,5.8,5.8,0,0,0-2.421-2.268,8.017,8.017,0,0,0-3.7-.8H616V84.159Z" transform="translate(-525.084 -63.764)"/><path class="b" d="M752.981,162.244a3.6,3.6,0,0,1-2.592-1.029,3.576,3.576,0,0,1-.572-4.365,3.828,3.828,0,0,1,1.315-1.315,3.624,3.624,0,1,1,3.7,6.233A3.611,3.611,0,0,1,752.981,162.244Z" transform="translate(-635.785 -134.719)"/><path class="a" d="M807.407,112.025a10.893,10.893,0,0,1-5.47-1.372,10.062,10.062,0,0,1-3.812-3.774,11.412,11.412,0,0,1,0-10.922,9.986,9.986,0,0,1,3.831-3.793,11.542,11.542,0,0,1,9.682-.572,9.738,9.738,0,0,1,3.507,2.44l-1.6,1.334a8.027,8.027,0,0,0-2.783-1.906,9.077,9.077,0,0,0-3.393-.61,8.665,8.665,0,0,0-4.307,1.067,7.631,7.631,0,0,0-2.993,3.031,9.1,9.1,0,0,0-1.086,4.479,8.968,8.968,0,0,0,1.105,4.479,7.714,7.714,0,0,0,3.031,3.031A8.768,8.768,0,0,0,807.445,110a8.576,8.576,0,0,0,3.336-.629,8.241,8.241,0,0,0,2.8-2l1.6,1.372a10.345,10.345,0,0,1-3.526,2.44A10.9,10.9,0,0,1,807.407,112.025Z" transform="translate(-672.843 -84.502)"/><path class="a" d="M899.921,112.025a11,11,0,0,1-5.489-1.372,9.846,9.846,0,0,1-3.812-3.793,11.444,11.444,0,0,1,.019-10.9,10.023,10.023,0,0,1,3.812-3.793,10.894,10.894,0,0,1,5.47-1.372,11.11,11.11,0,0,1,5.509,1.372,9.854,9.854,0,0,1,3.831,3.774,11.551,11.551,0,0,1,0,10.922,9.814,9.814,0,0,1-3.831,3.793A11.107,11.107,0,0,1,899.921,112.025Zm.038-2.058a8.648,8.648,0,0,0,4.327-1.086,7.758,7.758,0,0,0,3.011-3.03,9.619,9.619,0,0,0,0-8.882,7.757,7.757,0,0,0-3.011-3.03,9.234,9.234,0,0,0-8.691,0,7.754,7.754,0,0,0-3.011,3.03,8.909,8.909,0,0,0-1.087,4.422,9.013,9.013,0,0,0,1.087,4.441,7.717,7.717,0,0,0,3.011,3.05A8.722,8.722,0,0,0,899.959,109.967Z" transform="translate(-745.154 -84.502)"/><path class="a" d="M1025.6,90.792a7.971,7.971,0,0,1,4.25,1.182,8.137,8.137,0,0,1,3.05,3.507,12.781,12.781,0,0,1,1.125,5.6v10.6h-2.249v-10.9a10.1,10.1,0,0,0-.857-4.384,6.171,6.171,0,0,0-2.268-2.668,5.673,5.673,0,0,0-3.05-.877,5.8,5.8,0,0,0-3.126.877,6.048,6.048,0,0,0-2.249,2.668,10.3,10.3,0,0,0-.838,4.384v10.9h-2.249v-10.9a10.514,10.514,0,0,0-.819-4.384,5.946,5.946,0,0,0-2.23-2.668,5.806,5.806,0,0,0-3.126-.877,5.735,5.735,0,0,0-3.088.877A6.168,6.168,0,0,0,1005.6,96.4a10.1,10.1,0,0,0-.858,4.384v10.9h-2.211v-10.6a12.957,12.957,0,0,1,1.105-5.6,7.821,7.821,0,0,1,7.319-4.689,7.488,7.488,0,0,1,4.479,1.411,7.884,7.884,0,0,1,2.84,4.231,7.88,7.88,0,0,1,2.84-4.231A7.486,7.486,0,0,1,1025.6,90.792Z" transform="translate(-833.7 -84.502)"/></g><path class="b" d="M40.958,44.037H5.116A1.834,1.834,0,0,1,3.282,42.2V30.729a1.835,1.835,0,0,1,.711-1.451l7.022-5.437V15.294a1.834,1.834,0,0,1,.711-1.45L25.781,2.963a1.835,1.835,0,0,1,2.246,0l14.054,10.88a1.834,1.834,0,0,1,.711,1.45V42.2A1.834,1.834,0,0,1,40.958,44.037ZM6.951,40.368H39.123V16.193L26.9,6.733l-12.22,9.46V21l4.07-3.151a1.834,1.834,0,0,1,2.246,0l7.027,5.44a1.834,1.834,0,0,1,.711,1.45V34.932A1.834,1.834,0,0,1,26.9,36.767H12.85a1.834,1.834,0,0,1-1.834-1.834V28.481L6.951,31.628ZM14.685,33.1H25.07V25.641l-5.193-4.02-5.192,4.02Z"/></g></svg>